HIERARCHY
ROOT Hips
{
 OFFSET 0.000000 0.000000 0.000000
 CHANNELS 6 Xposition Yposition Zposition Yrotation Xrotation Zrotation
 JOINT Chest
 {
  OFFSET 0.000000 9.585900 0.002600
  CHANNELS 3 Yrotation Xrotation Zrotation
  JOINT Chest2
  {
   OFFSET 0.000000 9.601200 -0.005300
   CHANNELS 3 Yrotation Xrotation Zrotation
   JOINT Chest3
   {
    OFFSET 0.000000 9.561800 0.000000
    CHANNELS 3 Yrotation Xrotation Zrotation
    JOINT Chest4
    {
     OFFSET 0.000000 9.552100 0.000000
     CHANNELS 3 Yrotation Xrotation Zrotation
     JOINT Neck
     {
      OFFSET 0.000000 14.453000 0.000000
      CHANNELS 3 Yrotation Xrotation Zrotation
      JOINT Head
      {
       OFFSET 0.000000 8.936500 -0.011300
       CHANNELS 3 Yrotation Xrotation Zrotation
       End Site
       {
        OFFSET 0.000000 17.073600 -0.006000
       }
      }
     }
     JOINT RightCollar
     {
      OFFSET -2.921100 9.558500 0.000000
      CHANNELS 3 Yrotation Xrotation Zrotation
      JOINT RightShoulder
      {
       OFFSET -13.519700 0.000000 0.000000
       CHANNELS 3 Yrotation Xrotation Zrotation
       JOINT RightElbow
       {
        OFFSET 0.000000 -29.696600 0.000000
        CHANNELS 3 Yrotation Xrotation Zrotation
        JOINT RightWrist
        {
         OFFSET 0.000000 -24.004700 0.000000
         CHANNELS 3 Yrotation Xrotation Zrotation
         End Site
         {
          OFFSET 0.000000 -17.728500 0.000000
         }
        }
       }
      }
     }
     JOINT LeftCollar
     {
      OFFSET 2.921100 9.558500 0.000000
      CHANNELS 3 Yrotation Xrotation Zrotation
      JOINT LeftShoulder
      {
       OFFSET 13.519700 0.000000 0.000000
       CHANNELS 3 Yrotation Xrotation Zrotation
       JOINT LeftElbow
       {
        OFFSET 0.000000 -29.696600 0.000000
        CHANNELS 3 Yrotation Xrotation Zrotation
        JOINT LeftWrist
        {
         OFFSET 0.000000 -24.004700 0.000000
         CHANNELS 3 Yrotation Xrotation Zrotation
         End Site
         {
          OFFSET 0.000000 -17.728500 0.000000
         }
        }
       }
      }
     }
    }
   }
  }
 }
 JOINT RightHip
 {
  OFFSET -7.771700 -0.012900 -0.001300
  CHANNELS 3 Yrotation Xrotation Zrotation
  JOINT RightKnee
  {
   OFFSET 0.000000 -40.869800 0.001200
   CHANNELS 3 Yrotation Xrotation Zrotation
   JOINT RightAnkle
   {
    OFFSET 0.000000 -39.717900 0.002100
    CHANNELS 3 Yrotation Xrotation Zrotation
    JOINT RightToe
    {
     OFFSET 0.000000 -4.965400 11.033500
     CHANNELS 3 Yrotation Xrotation Zrotation
     End Site
     {
      OFFSET 0.000000 -1.423100 5.872300
     }
    }
   }
  }
 }
 JOINT LeftHip
 {
  OFFSET 7.771700 -0.012900 -0.001300
  CHANNELS 3 Yrotation Xrotation Zrotation
  JOINT LeftKnee
  {
   OFFSET 0.000000 -40.869800 0.001200
   CHANNELS 3 Yrotation Xrotation Zrotation
   JOINT LeftAnkle
   {
    OFFSET 0.000000 -39.717900 0.002100
    CHANNELS 3 Yrotation Xrotation Zrotation
    JOINT LeftToe
    {
     OFFSET 0.000000 -4.965400 11.033500
     CHANNELS 3 Yrotation Xrotation Zrotation
     End Site
     {
      OFFSET 0.000000 -1.423100 5.872300
     }
    }
   }
  }
 }
}
MOTION
Frames: 16
Frame Time: 0.008333
-215.728923 57.961841 25.952395 174.083743 -50.274104 -3.212480 4.822303 23.069446 4.028439 2.420768 13.230108 2.066675 3.129083 16.511744 2.693573 2.421617 13.226415 2.068347 0.443751 15.589106 1.540272 0.270475 -6.836074 2.720203 1.569228 2.615812 0.431469 1.155924 -15.239515 -11.407324 -78.571478 -66.048901 120.594934 10.087246 15.053274 -22.726736 -10.403477 0.136570 -0.631960 3.919345 -11.434395 12.850275 57.964124 -58.717833 -107.319431 1.187288 5.666680 11.413156 3.539900 -21.900489 -1.779334 -36.794613 73.366350 -39.318710 5.424135 -12.588778 10.463963 0.017282 -0.162337 -0.011065 -5.037480 -20.773782 9.544514 55.177072 78.607106 53.945881 5.064072 -15.331205 -17.173250 0.053873 0.140015 0.028979
-215.733649 57.962450 25.950078 174.086179 -50.269540 -3.210946 4.816897 23.071255 4.022287 2.422337 13.226811 2.067157 3.128207 16.511233 2.693688 2.423042 13.226205 2.068233 0.442576 15.587069 1.537160 0.268309 -6.838977 2.712666 1.572827 2.620545 0.415980 1.142212 -15.243427 -11.390753 -78.565490 -66.053885 120.589694 10.088165 15.057457 -22.719510 -10.414805 0.134915 -0.636005 3.931519 -11.434664 12.854254 57.953782 -58.717416 -107.312939 1.190007 5.664521 11.418196 3.537947 -21.901354 -1.793750 -36.762546 73.368293 -39.289314 5.443163 -12.590088 10.470940 0.008301 -0.161517 -0.013860 -5.038653 -20.778637 9.538595 55.183268 78.610221 53.950942 5.063137 -15.332310 -17.173155 0.058276 0.135568 0.030136
-215.737683 57.961858 25.949072 174.088612 -50.255375 -3.213989 4.813075 23.068021 4.019557 2.424090 13.218867 2.068193 3.128378 16.512761 2.693837 2.421171 13.225883 2.068525 0.444684 15.582975 1.535078 0.261792 -6.851799 2.695113 1.573589 2.619380 0.408403 1.138442 -15.240594 -11.383583 -78.570033 -66.056436 120.598287 10.082043 15.064467 -22.722213 -10.418662 0.132410 -0.639439 3.937649 -11.432987 12.852831 57.948685 -58.725769 -107.304751 1.196503 5.665647 11.421239 3.533819 -21.914769 -1.795341 -36.748793 73.368798 -39.281338 5.451532 -12.590258 10.475454 0.008107 -0.160314 -0.011556 -5.043544 -20.793459 9.538489 55.177427 78.607065 53.943446 5.064412 -15.327811 -17.170067 0.055349 0.133866 0.027902
-215.741039 57.960925 25.948711 174.091274 -50.237995 -3.220750 4.811938 23.054123 4.022852 2.420265 13.229215 2.066107 3.131153 16.504412 2.694648 2.418069 13.225480 2.067756 0.445380 15.578332 1.530238 0.263830 -6.853900 2.694783 1.579087 2.618213 0.402694 1.129823 -15.241056 -11.371561 -78.561187 -66.064134 120.596443 10.079918 15.069720 -22.724982 -10.415348 0.128379 -0.640991 3.936957 -11.428491 12.856395 57.944307 -58.735486 -107.297968 1.204834 5.665007 11.421193 3.528573 -21.931243 -1.791475 -36.743682 73.367030 -39.281761 5.457615 -12.591394 10.480045 0.005699 -0.158074 -0.010012 -5.049305 -20.810699 9.543989 55.188431 78.606872 53.954218 5.058935 -15.332164 -17.169425 0.057740 0.135046 0.028148
-215.743677 57.961266 25.947615 174.084617 -50.230861 -3.222792 4.813194 23.062715 4.023989 2.423723 13.217981 2.067620 3.126145 16.508724 2.692410 2.422920 13.218698 2.067149 0.437781 15.572208 1.523236 0.269841 -6.859708 2.690064 1.587484 2.620357 0.399434 1.122946 -15.241471 -11.361347 -78.545422 -66.073297 120.582354 10.074587 15.073698 -22.732755 -10.420268 0.125083 -0.643403 3.948349 -11.410438 12.865086 57.971385 -58.741042 -107.327582 1.209931 5.673752 11.422238 3.529394 -21.938395 -1.784209 -36.743788 73.365602 -39.284651 5.459146 -12.590927 10.482485 0.005358 -0.158081 -0.009172 -5.049113 -20.817297 9.551640 55.193512 78.614815 53.960547 5.057574 -15.337189 -17.170637 0.064501 0.132292 0.029165
-215.746766 57.961462 25.946805 174.085259 -50.222615 -3.226179 4.810703 23.058603 4.024314 2.425178 13.215337 2.067890 3.122131 16.509298 2.691246 2.426401 13.217315 2.066336 0.433086 15.567671 1.519631 0.260560 -6.879044 2.672840 1.594559 2.622192 0.398135 1.113157 -15.239808 -11.355044 -78.539451 -66.075410 120.578159 10.076963 15.078858 -22.733188 -10.448078 0.120851 -0.642741 3.980492 -11.399437 12.866758 57.979669 -58.746364 -107.338961 1.215033 5.675614 11.424268 3.532037 -21.944377 -1.780154 -36.755327 73.362163 -39.295554 5.452135 -12.593896 10.486379 0.020070 -0.153144 -0.004724 -5.052694 -20.826509 9.553293 55.206336 78.615658 53.972157 5.058306 -15.336335 -17.169205 0.063983 0.129657 0.028428
-215.749632 57.961004 25.946866 174.091991 -50.209124 -3.234072 4.800370 23.052532 4.021383 2.428691 13.211229 2.068370 3.117339 16.508362 2.690921 2.431111 13.215247 2.064030 0.432165 15.566011 1.518496 0.256997 -6.888200 2.662548 1.602319 2.622073 0.398304 1.107768 -15.237843 -11.353767 -78.520209 -66.078896 120.557909 10.078519 15.078820 -22.736628 -10.454458 0.119355 -0.642212 3.991588 -11.391073 12.868926 57.981301 -58.752036 -107.344195 1.220689 5.673553 11.428059 3.524160 -21.953106 -1.774880 -36.744775 73.354289 -39.294002 5.453139 -12.597310 10.496814 0.002041 -0.146944 -0.007592 -5.057987 -20.844816 9.555003 55.227035 78.617076 53.994791 5.057514 -15.333031 -17.170718 0.060671 0.124779 0.029619
-215.751174 57.961099 25.947006 174.088715 -50.199993 -3.240064 4.798103 23.051495 4.023071 2.423281 13.211709 2.066701 3.123175 16.501783 2.690150 2.423379 13.212664 2.067142 0.441454 15.565255 1.511171 0.257458 -6.891815 2.656687 1.622920 2.621272 0.391251 1.102635 -15.234963 -11.355190 -78.510001 -66.079701 120.544340 10.078447 15.076550 -22.737616 -10.448319 0.117898 -0.647619 4.001899 -11.385444 12.870266 57.983357 -58.753804 -107.348015 1.227659 5.673964 11.429171 3.520660 -21.963186 -1.764100 -36.748056 73.351730 -39.301410 5.454894 -12.594504 10.501318 0.004325 -0.147701 -0.007645 -5.057762 -20.855374 9.562409 55.234815 78.622297 54.007020 5.062887 -15.335460 -17.173837 0.062542 0.123560 0.030371
-215.753626 57.960866 25.947587 174.089061 -50.188313 -3.241566 4.794374 23.045067 4.019500 2.420699 13.211124 2.064713 3.126721 16.498230 2.691116 2.424735 13.211722 2.068049 0.434974 15.560656 1.507326 0.262471 -6.893099 2.652419 1.628164 2.620179 0.390216 1.104842 -15.231167 -11.358414 -78.513703 -66.081886 120.542327 10.074279 15.075542 -22.741925 -10.454760 0.116547 -0.645964 4.012748 -11.378121 12.869859 57.987665 -58.757288 -107.353874 1.240946 5.681920 11.429390 3.519390 -21.975387 -1.760822 -36.758583 73.346577 -39.314745 5.452592 -12.589909 10.505837 0.014425 -0.147538 -0.004635 -5.056276 -20.867845 9.562445 55.218776 78.619664 53.993327 5.063044 -15.332711 -17.172012 0.062273 0.123768 0.029978
-215.755715 57.960637 25.948547 174.084529 -50.176423 -3.239820 4.794528 23.038799 4.018381 2.420214 13.207669 2.063602 3.127495 16.496957 2.689394 2.420460 13.211542 2.064764 0.429141 15.550776 1.499634 0.259500 -6.910535 2.636590 1.638331 2.618873 0.392593 1.098344 -15.228324 -11.353869 -78.485421 -66.090865 120.509761 10.064878 15.072607 -22.752647 -10.451268 0.115940 -0.641081 4.017951 -11.370064 12.869812 57.981922 -58.757489 -107.349239 1.243935 5.681749 11.428842 3.520102 -21.987746 -1.758117 -36.767196 73.338398 -39.326126 5.456043 -12.584130 10.509010 0.011891 -0.147878 -0.004122 -5.050890 -20.879325 9.563797 55.202632 78.618698 53.981059 5.058220 -15.336898 -17.174294 0.060057 0.126926 0.032556
-215.757467 57.960593 25.949688 174.082111 -50.165374 -3.240322 4.795155 23.032662 4.019543 2.420126 13.203352 2.063070 3.123188 16.495666 2.687515 2.421048 13.209602 2.064423 0.431683 15.551728 1.497938 0.256807 -6.916325 2.631737 1.650233 2.622568 0.393551 1.099944 -15.221709 -11.365550 -78.490271 -66.088281 120.507134 10.062185 15.066192 -22.754499 -10.449597 0.117682 -0.640287 4.019069 -11.363809 12.868749 57.974327 -58.758406 -107.342865 1.247458 5.680431 11.434068 3.517541 -21.998811 -1.755643 -36.769338 73.331223 -39.332514 5.463739 -12.579318 10.513543 0.010264 -0.148120 -0.004892 -5.048937 -20.889908 9.566231 55.187620 78.617242 53.968663 5.058330 -15.337727 -17.176568 0.061865 0.127978 0.033745
-215.759451 57.960921 25.950674 174.085815 -50.156634 -3.243056 4.792034 23.025937 4.018682 2.420464 13.206958 2.063617 3.120969 16.494113 2.684614 2.423622 13.206040 2.066114 0.428378 15.546704 1.493634 0.254841 -6.919307 2.629409 1.657896 2.622348 0.391161 1.095115 -15.220769 -11.365922 -78.475578 -66.089865 120.491500 10.059667 15.061674 -22.757567 -10.459045 0.119723 -0.637914 4.026230 -11.361049 12.865554 57.967769 -58.758528 -107.335340 1.247269 5.679552 11.439752 3.513344 -22.006852 -1.756028 -36.773700 73.325750 -39.340923 5.470376 -12.575701 10.519991 0.008806 -0.149068 -0.006606 -5.050160 -20.897960 9.565637 55.172881 78.615706 53.956895 5.055950 -15.338742 -17.179190 0.067997 0.126167 0.034366
-215.761676 57.961618 25.951401 174.089068 -50.150567 -3.243384 4.790713 23.024559 4.013784 2.419881 13.207996 2.063678 3.119911 16.488948 2.686061 2.421314 13.204108 2.062856 0.426526 15.540821 1.490708 0.249052 -6.950417 2.613536 1.677269 2.628858 0.390071 1.082823 -15.224581 -11.364788 -78.459763 -66.088317 120.475465 10.052242 15.065018 -22.764552 -10.461094 0.125232 -0.631232 4.032169 -11.360855 12.860421 57.957644 -58.758773 -107.326456 1.244952 5.675471 11.442930 3.510382 -22.011491 -1.758536 -36.774694 73.320630 -39.346055 5.475349 -12.572697 10.524678 0.008308 -0.149689 -0.005782 -5.047094 -20.901939 9.562056 55.145863 78.613157 53.934381 5.053266 -15.341290 -17.181540 0.071527 0.128220 0.036211
-215.763590 57.962368 25.952117 174.092071 -50.144782 -3.245317 4.792554 23.028180 4.018063 2.415662 13.199631 2.059923 3.117899 16.488998 2.685472 2.415974 13.203596 2.061888 0.425219 15.528516 1.482484 0.254476 -6.948426 2.613153 1.692790 2.629425 0.383723 1.080454 -15.222288 -11.361468 -78.459096 -66.087944 120.469312 10.048526 15.064784 -22.768030 -10.466593 0.124999 -0.629250 4.043570 -11.357619 12.855660 57.929494 -58.761675 -107.294944 1.242219 5.662274 11.439398 3.509754 -22.014350 -1.762845 -36.762113 73.316774 -39.334222 5.486845 -12.571035 10.532146 -0.004968 -0.148349 -0.006477 -5.046203 -20.907809 9.560712 55.137076 78.612021 53.928431 5.052253 -15.340323 -17.182071 0.071774 0.127012 0.036339
-215.765745 57.963561 25.952275 174.089130 -50.143013 -3.241072 4.794380 23.033287 4.018417 2.413625 13.196904 2.059290 3.121762 16.492375 2.686126 2.416629 13.202004 2.061181 0.421515 15.518524 1.477748 0.252756 -6.954886 2.611064 1.693107 2.623638 0.379106 1.085671 -15.216058 -11.359480 -78.465461 -66.089773 120.468018 10.037885 15.079524 -22.772167 -10.477769 0.121209 -0.628268 4.049535 -11.356482 12.852881 57.927870 -58.764440 -107.291546 1.250137 5.678851 11.449167 3.513078 -22.015074 -1.765138 -36.760856 73.313237 -39.334087 5.476647 -12.563935 10.541677 -0.000332 -0.150374 -0.009636 -5.039989 -20.910098 9.557388 55.133186 78.617952 53.926028 5.055194 -15.343327 -17.181968 0.071774 0.125666 0.037879
-215.767643 57.964448 25.952496 174.086990 -50.139330 -3.239131 4.796131 23.035191 4.018942 2.416292 13.196794 2.060282 3.121481 16.489027 2.685182 2.417379 13.200951 2.061627 0.418600 15.515183 1.476241 0.246405 -6.970327 2.604501 1.694781 2.621058 0.375484 1.083567 -15.212336 -11.355801 -78.439689 -66.092217 120.440552 10.041338 15.073338 -22.772910 -10.487270 0.120655 -0.624949 4.055888 -11.355008 12.851205 57.905905 -58.763943 -107.277707 1.249543 5.672994 11.459746 3.515691 -22.018239 -1.764423 -36.765630 73.310175 -39.339395 5.469761 -12.559194 10.545494 -0.002909 -0.151157 -0.008693 -5.036039 -20.913976 9.556262 55.125645 78.619381 53.917825 5.062226 -15.342027 -17.181890 0.070088 0.124010 0.038064
